<svg width="512" height="512" viewBox="0 0 512 512" fill="none" xmlns="http://www.w3.org/2000/svg">
<rect width="512" height="512" fill="#F5EFE8"/>
<path d="M256.005 96C334.229 96 404.016 145.365 465.21 241.803C467.907 246.047 469.34 250.971 469.34 256C469.34 261.029 467.907 265.953 465.21 270.197C404.016 366.635 334.229 416 256.005 416C177.781 416 107.994 366.635 46.7996 270.197C44.1024 265.953 42.6699 261.029 42.6699 256C42.6699 250.971 44.1024 246.047 46.7996 241.803C107.994 145.365 177.781 96 256.005 96ZM256.25 130.5C184.868 130.5 127 187.025 127 256.75C127 326.475 184.868 383 256.25 383C327.632 383 385.5 326.475 385.5 256.75C385.5 187.025 327.632 130.5 256.25 130.5Z" fill="url(#paint0_linear_320_627)"/>
<path d="M256 356C200.77 356 156 311.23 156 256C156 200.77 200.77 156 256 156C311.23 156 356 200.77 356 256C356 311.23 311.23 356 256 356ZM256 336V176C234.783 176 214.434 184.429 199.431 199.431C184.429 214.434 176 234.783 176 256C176 277.217 184.429 297.566 199.431 312.569C214.434 327.571 234.783 336 256 336Z" fill="black"/>
<defs>
<linearGradient id="paint0_linear_320_627" x1="256.005" y1="96" x2="256.005" y2="416" gradientUnits="userSpaceOnUse">
<stop stop-color="#F08048"/>
<stop offset="1" stop-color="#D95022"/>
</linearGradient>
</defs>
</svg>
